<svg version="1.1" preserveAspectRatio="none" xmlns="http://www.w3.org/2000/svg" width="500" height="500" viewBox="0 0 500 500"><rect width="100%" height="100%" fill="#010506" fill-opacity="1"/><svg viewBox="68.3283 306.72 509.1405 123.76" width="333" height="80.94441514670312" x="83.5px" y="209.5278px" xmlns="http://www.w3.org/2000/svg" xmlns:xlink="http://www.w3.org/1999/xlink" preserveAspectRatio="none"><defs></defs><style>.background {fill:#010506;fill-opacity:1;}.companyName {fill:#EEF8F7;fill-opacity:1;}.icon1 {fill:#E35F21;fill-opacity:1;}.icon2 {fill:#EEF8F7;fill-opacity:1;}.icon3 {fill:#FAAB05;fill-opacity:1;}.icon3-str {stroke:#FAAB05;stroke-opacity:1;}.shapeStroke-str {stroke:#E35F21;stroke-opacity:1;}.text {fill:#EEF8F7;fill-opacity:1;}</style><g opacity="1" transform="rotate(0 68.3283 306.72)">
<svg width="123.76" height="123.76" x="68.3283" y="306.72" version="1.1" preserveAspectRatio="none" viewBox="0 0 123.76 123.76">
  <defs><rect x="0" y="0" width="123.76" height="123.76" rx="150px" ry="150px" id="id-3WKIowxM31682460192428"></rect></defs><use class="icon1 shapeStroke-str" style="stroke-width:0;" xlink:href="#id-3WKIowxM31682460192428"></use>
</svg>
</g><g opacity="1" transform="rotate(0 86.8923 345.2989)">
<svg width="86.632" height="46.6023" x="86.8923" y="345.2989" version="1.1" preserveAspectRatio="none" viewBox="12.14799976348877 29.63800048828125 75.70455932617188 40.7239990234375">
  <g transform="matrix(1 0 0 1 0 0)" class="background"><g><path d="M38.654,60.409h29.634c0.619,0,1.169-0.393,1.371-0.979l7.922-23.015c0.152-0.443,0.082-0.933-0.19-1.314   c-0.271-0.381-0.712-0.608-1.181-0.608H46.578c-0.619,0-1.169,0.393-1.371,0.978l-7.924,23.016   c-0.152,0.443-0.082,0.933,0.191,1.314C37.746,60.183,38.186,60.409,38.654,60.409z M47.613,37.394h26.565L67.253,57.51H40.687   L47.613,37.394z"></path><path d="M87.575,30.235c-0.273-0.375-0.709-0.597-1.173-0.597H42.506c-0.625,0-1.179,0.4-1.376,0.993L30.565,62.419H13.598   c-0.801,0-1.45,0.649-1.45,1.45v5.044c0,0.801,0.649,1.449,1.45,1.449h60.573c0.628,0,1.186-0.405,1.379-1.004l12.232-37.824   C87.925,31.093,87.848,30.61,87.575,30.235z M56.759,67.462H39.397v-2.143h17.361V67.462z M43.552,32.538h37.692l-9.932,29.881   H33.859h-0.238L43.552,32.538z M15.048,65.319h17.361v2.143H15.048V65.319z M35.309,67.462v-2.143h1.188v2.143H35.309z"></path></g></g>
</svg>
</g><g opacity="1" transform="rotate(0 212.0883 397)">
<svg width="125.4281" height="19.2" x="212.0883" y="397" version="1.1" preserveAspectRatio="none" viewBox="1.96 -29.6 195.2 29.880000000000003">
  <g transform="matrix(1 0 0 1 0 0)" class="text"><path id="id-6izo4zJp7" d="M15.72-28.48Q20.64-28.48 23.98-26.04Q27.32-23.60 28.48-19.40L28.48-19.40L24.64-19.40Q23.64-21.96 21.30-23.52Q18.96-25.08 15.76-25.08L15.76-25.08Q12.88-25.08 10.60-23.74Q8.32-22.40 7.02-19.92Q5.72-17.44 5.72-14.08L5.72-14.08Q5.72-10.64 7.04-8.14Q8.36-5.64 10.70-4.30Q13.04-2.96 16.08-2.96L16.08-2.96Q18.68-2.96 20.84-4.08Q23-5.20 24.38-7.34Q25.76-9.48 26.04-12.36L26.04-12.36L14.96-12.36L14.96-15.08L29.12-15.08L29.12-11.72Q28.76-8.36 27.04-5.64Q25.32-2.92 22.40-1.32Q19.48 0.28 15.76 0.28L15.76 0.28Q11.68 0.28 8.56-1.54Q5.44-3.36 3.70-6.62Q1.96-9.88 1.96-14.08L1.96-14.08Q1.96-18.28 3.70-21.54Q5.44-24.80 8.56-26.64Q11.68-28.48 15.72-28.48L15.72-28.48Z M49.60-22.32Q53.44-22.32 55.80-19.86Q58.16-17.40 58.16-12.76L58.16-12.76L58.16 0L54.52 0L54.52-12.44Q54.52-15.72 52.84-17.48Q51.16-19.24 48.28-19.24L48.28-19.24Q45.28-19.24 43.48-17.30Q41.68-15.36 41.68-11.64L41.68-11.64L41.68 0L38.04 0L38.04-29.60L41.68-29.60L41.68-16.76Q42.52-19.44 44.66-20.88Q46.80-22.32 49.60-22.32L49.60-22.32Z M76.76-22.24Q79.96-22.24 82.18-20.64Q84.40-19.04 85.28-16.36L85.28-16.36L85.28-21.96L88.92-21.96L88.92 0L85.28 0L85.28-5.60Q84.40-2.92 82.18-1.32Q79.96 0.28 76.76 0.28L76.76 0.28Q73.84 0.28 71.56-1.08Q69.28-2.44 67.98-4.98Q66.68-7.52 66.68-10.96L66.68-10.96Q66.68-14.40 67.98-16.96Q69.28-19.52 71.56-20.88Q73.84-22.24 76.76-22.24L76.76-22.24ZM77.80-19Q74.44-19 72.42-16.86Q70.40-14.72 70.40-10.96L70.40-10.96Q70.40-7.20 72.42-5.06Q74.44-2.92 77.80-2.92L77.80-2.92Q79.96-2.92 81.66-3.92Q83.36-4.92 84.32-6.74Q85.28-8.56 85.28-10.96L85.28-10.96Q85.28-13.36 84.32-15.20Q83.36-17.04 81.66-18.02Q79.96-19 77.80-19L77.80-19Z M105.60-22.24Q109.32-22.24 111.58-20.30Q113.84-18.36 114.32-15.08L114.32-15.08L110.84-15.08Q110.60-17.04 109.22-18.30Q107.84-19.56 105.52-19.56L105.52-19.56Q103.56-19.56 102.46-18.62Q101.36-17.68 101.36-16.08L101.36-16.08Q101.36-14.88 102.10-14.14Q102.84-13.40 103.94-13.02Q105.04-12.64 106.96-12.20L106.96-12.20Q109.40-11.64 110.90-11.06Q112.40-10.48 113.46-9.20Q114.52-7.92 114.52-5.76L114.52-5.76Q114.52-3.08 112.50-1.40Q110.48 0.28 107.12 0.28L107.12 0.28Q103.20 0.28 100.72-1.60Q98.24-3.48 97.80-6.84L97.80-6.84L101.32-6.84Q101.52-4.84 103.06-3.60Q104.60-2.36 107.12-2.36L107.12-2.36Q109.00-2.36 110.06-3.32Q111.12-4.28 111.12-5.84L111.12-5.84Q111.12-7.12 110.36-7.88Q109.60-8.64 108.48-9.04Q107.36-9.44 105.40-9.88L105.40-9.88Q102.96-10.44 101.50-11Q100.04-11.56 99.02-12.78Q98.00-14 98.00-16.08L98.00-16.08Q98.00-18.84 100.04-20.54Q102.08-22.24 105.60-22.24L105.60-22.24Z M130.28-22.24Q134.00-22.24 136.26-20.30Q138.52-18.36 139.00-15.08L139.00-15.08L135.52-15.08Q135.28-17.04 133.90-18.30Q132.52-19.56 130.20-19.56L130.20-19.56Q128.24-19.56 127.14-18.62Q126.04-17.68 126.04-16.08L126.04-16.08Q126.04-14.88 126.78-14.14Q127.52-13.40 128.62-13.02Q129.72-12.64 131.64-12.20L131.64-12.20Q134.08-11.64 135.58-11.06Q137.08-10.48 138.14-9.20Q139.20-7.92 139.20-5.76L139.20-5.76Q139.20-3.08 137.18-1.40Q135.16 0.28 131.80 0.28L131.80 0.28Q127.88 0.28 125.40-1.60Q122.92-3.48 122.48-6.84L122.48-6.84L126.00-6.84Q126.20-4.84 127.74-3.60Q129.28-2.36 131.80-2.36L131.80-2.36Q133.68-2.36 134.74-3.32Q135.80-4.28 135.80-5.84L135.80-5.84Q135.80-7.12 135.04-7.88Q134.28-8.64 133.16-9.04Q132.04-9.44 130.08-9.88L130.08-9.88Q127.64-10.44 126.18-11Q124.72-11.56 123.70-12.78Q122.68-14 122.68-16.08L122.68-16.08Q122.68-18.84 124.72-20.54Q126.76-22.24 130.28-22.24L130.28-22.24Z M168.28-12.20Q168.28-11.04 168.12-10.20L168.12-10.20L150.56-10.20Q150.68-6.44 152.70-4.56Q154.72-2.68 157.64-2.68L157.64-2.68Q160.28-2.68 162.06-4.02Q163.84-5.36 164.24-7.60L164.24-7.60L168.12-7.60Q167.72-5.32 166.34-3.52Q164.96-1.72 162.76-0.72Q160.56 0.28 157.80 0.28L157.80 0.28Q154.64 0.28 152.20-1.08Q149.76-2.44 148.38-4.98Q147.00-7.52 147.00-10.96L147.00-10.96Q147.00-14.40 148.38-16.96Q149.76-19.52 152.20-20.88Q154.64-22.24 157.80-22.24L157.80-22.24Q161.00-22.24 163.38-20.88Q165.76-19.52 167.02-17.24Q168.28-14.96 168.28-12.20L168.28-12.20ZM164.60-11.96Q164.72-14.40 163.80-16.04Q162.88-17.68 161.28-18.48Q159.68-19.28 157.80-19.28L157.80-19.28Q154.80-19.28 152.76-17.42Q150.72-15.56 150.56-11.96L150.56-11.96L164.60-11.96Z M188.60-22.32Q192.44-22.32 194.80-19.86Q197.16-17.40 197.16-12.76L197.16-12.76L197.16 0L193.52 0L193.52-12.44Q193.52-15.72 191.84-17.48Q190.16-19.24 187.28-19.24L187.28-19.24Q184.28-19.24 182.48-17.30Q180.68-15.36 180.68-11.64L180.68-11.64L180.68 0L177.04 0L177.04-21.96L180.68-21.96L180.68-16.76Q181.52-19.44 183.66-20.88Q185.80-22.32 188.60-22.32L188.60-22.32Z"/></g>
</svg>
</g><g opacity="1" transform="rotate(0 212.0883 321)">
<svg width="365.3805" height="60" x="212.0883" y="321" version="1.1" preserveAspectRatio="none" viewBox="1.52 -29.6 181.96 29.88">
  <g transform="matrix(1 0 0 1 0 0)" class="companyName"><path id="id-D6z1nYkh7" d="M15.60-28.56Q20.92-28.56 24.36-25.96Q27.80-23.36 28.64-18.92L28.64-18.92L21.40-18.92Q20.68-20.44 19.20-21.34Q17.72-22.24 15.64-22.24L15.64-22.24Q12.40-22.24 10.44-20.06Q8.48-17.88 8.48-14.16L8.48-14.16Q8.48-10.12 10.54-7.96Q12.60-5.80 16.40-5.80L16.40-5.80Q18.84-5.80 20.68-7.14Q22.52-8.48 23.28-10.96L23.28-10.96L14.64-10.96L14.64-15.88L29-15.88L29-9.12Q28.20-6.64 26.44-4.52Q24.68-2.40 21.94-1.08Q19.20 0.24 15.68 0.24L15.68 0.24Q11.40 0.24 8.20-1.58Q5-3.40 3.26-6.68Q1.52-9.96 1.52-14.16L1.52-14.16Q1.52-18.36 3.26-21.64Q5-24.92 8.18-26.74Q11.36-28.56 15.60-28.56L15.60-28.56Z M47.80-22.56Q51.64-22.56 53.90-20Q56.16-17.44 56.16-12.96L56.16-12.96L56.16 0L49.32 0L49.32-12.16Q49.32-14.40 48.14-15.66Q46.96-16.92 45-16.92L45-16.92Q42.92-16.92 41.70-15.60Q40.48-14.28 40.48-11.84L40.48-11.84L40.48 0L33.64 0L33.64-29.60L40.48-29.60L40.48-18.24Q41.44-20.24 43.34-21.40Q45.24-22.56 47.80-22.56L47.80-22.56Z M69.96-22.60Q72.52-22.60 74.36-21.44Q76.20-20.28 77.08-18.28L77.08-18.28L77.08-22.32L83.88-22.32L83.88 0L77.08 0L77.08-4.04Q76.20-2.04 74.36-0.88Q72.52 0.28 69.96 0.28L69.96 0.28Q67.20 0.28 65.02-1.10Q62.84-2.48 61.58-5.08Q60.32-7.68 60.32-11.16L60.32-11.16Q60.32-14.68 61.58-17.26Q62.84-19.84 65.02-21.22Q67.20-22.60 69.96-22.60L69.96-22.60ZM72.16-16.60Q69.96-16.60 68.62-15.16Q67.28-13.72 67.28-11.16L67.28-11.16Q67.28-8.60 68.62-7.16Q69.96-5.72 72.16-5.72L72.16-5.72Q74.32-5.72 75.70-7.20Q77.08-8.68 77.08-11.16L77.08-11.16Q77.08-13.68 75.70-15.14Q74.32-16.60 72.16-16.60L72.16-16.60Z M97.52-22.60Q101.76-22.60 104.30-20.48Q106.84-18.36 107.48-14.88L107.48-14.88L101.08-14.88Q100.80-16.24 99.82-17.02Q98.84-17.80 97.36-17.80L97.36-17.80Q96.20-17.80 95.60-17.30Q95.00-16.80 95.00-15.88L95.00-15.88Q95.00-14.84 96.10-14.32Q97.20-13.80 99.56-13.28L99.56-13.28Q102.12-12.68 103.76-12.06Q105.40-11.44 106.60-10.04Q107.80-8.64 107.80-6.28L107.80-6.28Q107.80-4.36 106.76-2.88Q105.72-1.40 103.76-0.56Q101.80 0.28 99.12 0.28L99.12 0.28Q94.60 0.28 91.88-1.72Q89.16-3.72 88.56-7.44L88.56-7.44L95.16-7.44Q95.32-6 96.38-5.24Q97.44-4.48 99.12-4.48L99.12-4.48Q100.28-4.48 100.88-5.02Q101.48-5.56 101.48-6.44L101.48-6.44Q101.48-7.60 100.38-8.10Q99.28-8.60 96.80-9.16L96.80-9.16Q94.32-9.68 92.72-10.28Q91.12-10.88 89.96-12.22Q88.80-13.56 88.80-15.88L88.80-15.88Q88.80-18.88 91.08-20.74Q93.36-22.60 97.52-22.60L97.52-22.60Z M120.52-22.60Q124.76-22.60 127.30-20.48Q129.84-18.36 130.48-14.88L130.48-14.88L124.08-14.88Q123.80-16.24 122.82-17.02Q121.84-17.80 120.36-17.80L120.36-17.80Q119.20-17.80 118.60-17.30Q118.00-16.80 118.00-15.88L118.00-15.88Q118.00-14.84 119.10-14.32Q120.20-13.80 122.56-13.28L122.56-13.28Q125.12-12.68 126.76-12.06Q128.40-11.44 129.60-10.04Q130.80-8.64 130.80-6.28L130.80-6.28Q130.80-4.36 129.76-2.88Q128.72-1.40 126.76-0.56Q124.80 0.28 122.12 0.28L122.12 0.28Q117.60 0.28 114.88-1.72Q112.16-3.72 111.56-7.44L111.56-7.44L118.16-7.44Q118.32-6 119.38-5.24Q120.44-4.48 122.12-4.48L122.12-4.48Q123.28-4.48 123.88-5.02Q124.48-5.56 124.48-6.44L124.48-6.44Q124.48-7.60 123.38-8.10Q122.28-8.60 119.80-9.16L119.80-9.16Q117.32-9.68 115.72-10.28Q114.12-10.88 112.96-12.22Q111.80-13.56 111.80-15.88L111.80-15.88Q111.80-18.88 114.08-20.74Q116.36-22.60 120.52-22.60L120.52-22.60Z M156.60-11.76Q156.60-10.92 156.40-9.92L156.40-9.92L140.92-9.92Q141.04-7.40 142.20-6.30Q143.36-5.20 145.16-5.20L145.16-5.20Q146.68-5.20 147.68-5.96Q148.68-6.72 149-7.92L149-7.92L156.24-7.92Q155.80-5.56 154.32-3.70Q152.84-1.84 150.56-0.78Q148.28 0.28 145.48 0.28L145.48 0.28Q142.20 0.28 139.66-1.10Q137.12-2.48 135.68-5.08Q134.24-7.68 134.24-11.16L134.24-11.16Q134.24-14.68 135.66-17.26Q137.08-19.84 139.64-21.22Q142.20-22.60 145.48-22.60L145.48-22.60Q148.80-22.60 151.32-21.24Q153.84-19.88 155.22-17.42Q156.60-14.96 156.60-11.76L156.60-11.76ZM149.68-12.80Q149.72-15 148.50-16.10Q147.28-17.20 145.48-17.20L145.48-17.20Q143.60-17.20 142.36-16.08Q141.12-14.96 140.96-12.80L140.96-12.80L149.68-12.80Z M175.12-22.56Q178.96-22.56 181.22-20Q183.48-17.44 183.48-12.96L183.48-12.96L183.48 0L176.64 0L176.64-12.16Q176.64-14.40 175.46-15.66Q174.28-16.92 172.32-16.92L172.32-16.92Q170.24-16.92 169.02-15.60Q167.80-14.28 167.80-11.84L167.80-11.84L167.80 0L160.96 0L160.96-22.32L167.80-22.32L167.80-18.24Q168.76-20.24 170.66-21.40Q172.56-22.56 175.12-22.56L175.12-22.56Z"/></g>
</svg>
</g></svg></svg>