<svg version="1.1" preserveAspectRatio="none" xmlns="http://www.w3.org/2000/svg" width="500" height="500" viewBox="0 0 500 500"><rect width="100%" height="100%" fill="#012B28" fill-opacity="1"/><svg viewBox="663.3084 519.9389 383.7822 196.8841" width="333" height="170.83232442776136" x="83.5px" y="164.5838px" xmlns="http://www.w3.org/2000/svg" xmlns:xlink="http://www.w3.org/1999/xlink" preserveAspectRatio="none"><defs></defs><style>.companyName {fill:#EBB42C;fill-opacity:1;}.icon2 {fill:#E7240E;fill-opacity:1;}.icon3 {fill:#B47049;fill-opacity:1;}.icon3-str {stroke:#B47049;stroke-opacity:1;}.text {fill:#EBB42C;fill-opacity:1;}</style><g opacity="1" transform="rotate(0 776.6564 700.103)">
<svg width="157.0862" height="16.72" x="776.6564" y="700.103" version="1.1" preserveAspectRatio="none" viewBox="2.72 -26.8 255.52 27.2">
  <g transform="matrix(1 0 0 1 0 0)" class="text"><path id="id-6izo4zJp7" d="M14.48-13.32L25.80-13.32L25.80 0L23.40 0L23.28-3.56Q22.12-1.64 20.02-0.62Q17.92 0.40 14.96 0.40L14.96 0.40Q11.24 0.40 8.48-1.26Q5.72-2.92 4.22-5.98Q2.72-9.04 2.72-13.20L2.72-13.20Q2.72-17.32 4.26-20.40Q5.80-23.48 8.58-25.14Q11.36-26.80 15.04-26.80L15.04-26.80Q18.96-26.80 21.50-25.32Q24.04-23.84 25.60-20.76L25.60-20.76L22.68-19.16Q21.80-21.40 19.82-22.60Q17.84-23.80 15.04-23.80L15.04-23.80Q12.36-23.80 10.34-22.52Q8.32-21.24 7.20-18.86Q6.08-16.48 6.08-13.20L6.08-13.20Q6.08-8.16 8.40-5.38Q10.72-2.60 15.08-2.60L15.08-2.60Q18.52-2.60 20.70-4.36Q22.88-6.12 22.88-9.40L22.88-9.40L22.88-10.32L14.48-10.32L14.48-13.32Z M62.80-26.40L66-26.40L66 0L62.80 0L62.80-11.88L48.48-11.88L48.48 0L45.28 0L45.28-26.40L48.48-26.40L48.48-14.88L62.80-14.88L62.80-26.40Z M104.28 0L101.48-7.32L89.52-7.32L86.72 0L83.36 0L93.64-26.40L97.44-26.40L107.68 0L104.28 0ZM90.68-10.32L100.32-10.32L96.76-19.68L95.52-23.36L95.44-23.36L94.28-19.80L90.68-10.32Z M133.20-26.80Q140.28-26.80 143.40-21.20L143.40-21.20L140.64-18.96Q139.44-21.60 137.78-22.70Q136.12-23.80 133.24-23.80L133.24-23.80Q130.20-23.80 128.46-22.54Q126.72-21.28 126.72-19.32L126.72-19.32Q126.72-18.04 127.40-17.20Q128.08-16.36 129.66-15.74Q131.24-15.12 134.04-14.64L134.04-14.64Q139.28-13.76 141.46-12Q143.64-10.24 143.64-7.12L143.64-7.12Q143.64-4.88 142.38-3.18Q141.12-1.48 138.80-0.54Q136.48 0.40 133.44 0.40L133.44 0.40Q129.44 0.40 126.62-1.16Q123.80-2.72 122.32-5.32L122.32-5.32L125.08-7.56Q126.16-5.20 128.26-3.90Q130.36-2.60 133.52-2.60L133.52-2.60Q136.64-2.60 138.48-3.74Q140.32-4.88 140.32-6.96L140.32-6.96Q140.32-8.72 138.72-9.76Q137.12-10.80 133.04-11.52L133.04-11.52Q127.76-12.44 125.56-14.16Q123.36-15.88 123.36-18.96L123.36-18.96Q123.36-21.08 124.56-22.88Q125.76-24.68 128-25.74Q130.24-26.80 133.20-26.80L133.20-26.80Z M170.84-26.80Q177.92-26.80 181.04-21.20L181.04-21.20L178.28-18.96Q177.08-21.60 175.42-22.70Q173.76-23.80 170.88-23.80L170.88-23.80Q167.84-23.80 166.10-22.54Q164.36-21.28 164.36-19.32L164.36-19.32Q164.36-18.04 165.04-17.20Q165.72-16.36 167.30-15.74Q168.88-15.12 171.68-14.64L171.68-14.64Q176.92-13.76 179.10-12Q181.28-10.24 181.28-7.12L181.28-7.12Q181.28-4.88 180.02-3.18Q178.76-1.48 176.44-0.54Q174.12 0.40 171.08 0.40L171.08 0.40Q167.08 0.40 164.26-1.16Q161.44-2.72 159.96-5.32L159.96-5.32L162.72-7.56Q163.80-5.20 165.90-3.90Q168.00-2.60 171.16-2.60L171.16-2.60Q174.28-2.60 176.12-3.74Q177.96-4.88 177.96-6.96L177.96-6.96Q177.96-8.72 176.36-9.76Q174.76-10.80 170.68-11.52L170.68-11.52Q165.40-12.44 163.20-14.16Q161.00-15.88 161.00-18.96L161.00-18.96Q161.00-21.08 162.20-22.88Q163.40-24.68 165.64-25.74Q167.88-26.80 170.84-26.80L170.84-26.80Z M203.20-3L219.12-3L219.12 0L200 0L200-26.40L218.52-26.40L218.52-23.40L203.20-23.40L203.20-14.88L215.12-14.88L215.12-11.88L203.20-11.88L203.20-3Z M258.24-26.40L258.24 0L254.28 0L243.24-17.68L240.44-22.88L240.40-22.88L240.56-18.64L240.56 0L237.52 0L237.52-26.40L241.48-26.40L252.48-8.80L255.32-3.52L255.36-3.52L255.20-7.76L255.20-26.40L258.24-26.40Z"/></g>
</svg>
</g><g opacity="1" transform="rotate(0 663.3084 628.103)">
<svg width="383.7822" height="38" x="663.3084" y="628.103" version="1.1" preserveAspectRatio="none" viewBox="2.4 -28.48 292.48 28.96">
  <g transform="matrix(1 0 0 1 0 0)" class="companyName"><path id="id-D6z1nYkh7" d="M30.28 0L30.28-12.48L22.36-12.48L22.36-10.84L26.84-10.84L26.84-3.60Q25.04-2.44 23.16-1.88Q21.28-1.32 18.88-1.32L18.88-1.32Q15.72-1.32 13.36-2.28Q11-3.24 9.44-4.94Q7.88-6.64 7.10-8.98Q6.32-11.32 6.32-14.12L6.32-14.12Q6.32-16.88 7.06-19.20Q7.80-21.52 9.28-23.20Q10.76-24.88 12.90-25.80Q15.04-26.72 17.88-26.72L17.88-26.72Q19.76-26.72 21.40-26.32Q23.04-25.92 24.32-25.28Q25.60-24.64 26.42-23.82Q27.24-23 27.48-22.16L27.48-22.16L30.36-22.16Q30-23.04 29.14-24.14Q28.28-25.24 26.80-26.20Q25.32-27.16 23.14-27.82Q20.96-28.48 18-28.48L18-28.48Q14.60-28.48 11.74-27.52Q8.88-26.56 6.80-24.76Q4.72-22.96 3.56-20.34Q2.40-17.72 2.40-14.40L2.40-14.40Q2.40-11.56 3.30-8.90Q4.20-6.24 6.06-4.14Q7.92-2.04 10.80-0.78Q13.68 0.48 17.68 0.48L17.68 0.48Q20.68 0.48 23-0.18Q25.32-0.84 26.84-1.64L26.84-1.64L26.84 0L30.28 0Z M57.12 0L57.12-13.92L73.88-13.92L73.88 0L77.52 0L77.52-28L73.88-28L73.88-15.76L57.12-15.76L57.12-28L53.48-28L53.48 0L57.12 0Z M104.88-8.24L118.68-8.24L122.52 0L126.40 0L113.36-28L111.36-28L99.52 0L101.36 0L104.88-8.24ZM111.56-23.52L117.84-10.04L105.64-10.04L111.40-23.52L111.56-23.52Z M147.80-7.08L145.08-7.08Q145.16-5.36 145.98-3.96Q146.80-2.56 148.22-1.58Q149.64-0.60 151.56-0.06Q153.48 0.48 155.76 0.48L155.76 0.48Q158.08 0.48 159.94-0.08Q161.80-0.64 163.12-1.68Q164.44-2.72 165.16-4.20Q165.88-5.68 165.88-7.48L165.88-7.48Q165.88-9.96 164.64-11.54Q163.40-13.12 161.54-14.18Q159.68-15.24 157.50-15.96Q155.32-16.68 153.46-17.48Q151.60-18.28 150.36-19.32Q149.12-20.36 149.12-22.08L149.12-22.08Q149.12-23.04 149.54-23.88Q149.96-24.72 150.78-25.34Q151.60-25.96 152.80-26.34Q154-26.72 155.56-26.72L155.56-26.72Q158.16-26.72 159.98-25.62Q161.80-24.52 162.12-22.16L162.12-22.16L164.84-22.16Q164.60-23.64 163.76-24.82Q162.92-26 161.64-26.82Q160.36-27.64 158.74-28.06Q157.12-28.48 155.36-28.48L155.36-28.48Q153.52-28.48 151.86-28Q150.20-27.52 148.94-26.60Q147.68-25.68 146.94-24.28Q146.20-22.88 146.20-21.08L146.20-21.08Q146.20-18.72 147.40-17.28Q148.60-15.84 150.42-14.88Q152.24-13.92 154.36-13.24Q156.48-12.56 158.30-11.70Q160.12-10.84 161.32-9.60Q162.52-8.36 162.52-6.28L162.52-6.28Q162.52-3.68 160.62-2.48Q158.72-1.28 155.56-1.28L155.56-1.28Q153.04-1.28 151.52-1.94Q150-2.60 149.20-3.52Q148.40-4.44 148.12-5.42Q147.84-6.40 147.80-7.08L147.80-7.08Z M188.80-7.08L186.08-7.08Q186.16-5.36 186.98-3.96Q187.80-2.56 189.22-1.58Q190.64-0.60 192.56-0.06Q194.48 0.48 196.76 0.48L196.76 0.48Q199.08 0.48 200.94-0.08Q202.80-0.64 204.12-1.68Q205.44-2.72 206.16-4.20Q206.88-5.68 206.88-7.48L206.88-7.48Q206.88-9.96 205.64-11.54Q204.40-13.12 202.54-14.18Q200.68-15.24 198.50-15.96Q196.32-16.68 194.46-17.48Q192.60-18.28 191.36-19.32Q190.12-20.36 190.12-22.08L190.12-22.08Q190.12-23.04 190.54-23.88Q190.96-24.72 191.78-25.34Q192.60-25.96 193.80-26.34Q195-26.72 196.56-26.72L196.56-26.72Q199.16-26.72 200.98-25.62Q202.80-24.52 203.12-22.16L203.12-22.16L205.84-22.16Q205.60-23.64 204.76-24.82Q203.92-26 202.64-26.82Q201.36-27.64 199.74-28.06Q198.12-28.48 196.36-28.48L196.36-28.48Q194.52-28.48 192.86-28Q191.20-27.52 189.94-26.60Q188.68-25.68 187.94-24.28Q187.20-22.88 187.20-21.08L187.20-21.08Q187.20-18.72 188.40-17.28Q189.60-15.84 191.42-14.88Q193.24-13.92 195.36-13.24Q197.48-12.56 199.30-11.70Q201.12-10.84 202.32-9.60Q203.52-8.36 203.52-6.28L203.52-6.28Q203.52-3.68 201.62-2.48Q199.72-1.28 196.56-1.28L196.56-1.28Q194.04-1.28 192.52-1.94Q191-2.60 190.20-3.52Q189.40-4.44 189.12-5.42Q188.84-6.40 188.80-7.08L188.80-7.08Z M248.48-28L230.40-28L230.40 0L248.48 0L248.48-2.20L234.04-2.20L234.04-13.92L246.44-13.92L246.44-15.76L234.04-15.76L234.04-25.80L248.48-25.80L248.48-28Z M294.88-28L293.04-28L293.04-6.60L292.88-6.60L270.68-28.48L270.48-28.48L270.48 0L272.32 0L272.32-21.40L272.48-21.40L294.68 0.48L294.88 0.48L294.88-28Z"/></g>
</svg>
</g><g opacity="1" transform="rotate(0 805.1995 519.9389)">
<svg width="100" height="48.1641" x="805.1995" y="519.9389" version="1.1" preserveAspectRatio="none" viewBox="19.974063873291016 61.42500305175781 160.02593994140625 77.07499694824219">
  <g transform="matrix(1 0 0 1 0 0)" ><g><path d="M26.9 138.5h4.8l74.1-69.1-6.5-6.1c-2.7-2.5-6.8-2.5-9.4 0l-67.7 63.1c-4.6 4.3-1.6 12.1 4.7 12.1z" data-color="1" class="companyName"></path><path d="M138 138.2c1.5 0 1.8-.8.7-1.8l-15.3-14.3c-1.1-1-2.8-1-3.9 0l-15.3 14.3c-1.1 1-.8 1.8.7 1.8H138z" data-color="1" class="companyName"></path><path d="M57.3 138.5l61.3-57.2-12.8-11.9-74.1 69.1h25.6z" data-color="2" class="icon2"></path><path d="M80.9 138.5c1.8 0 3.4-.7 4.7-1.9l27.4-25.5c2.7-2.5 6.8-2.5 9.4 0l27.4 25.5c1.3 1.2 3 1.9 4.7 1.9H180l-61.3-57.2-61.3 57.2h23.5z" data-color="3" class="icon3"></path></g></g>
</svg>
</g></svg></svg>